HIERARCHY
ROOT Hips
{
	OFFSET 0.00000 0.00000 0.00000
	CHANNELS 6 Xposition Yposition Zposition Yrotation Zrotation Xrotation 
	JOINT Lumbar
	{
		OFFSET 0 0 0
		CHANNELS 3 Zrotation Xrotation Yrotation
		JOINT Neck
		{
			OFFSET 0.00 0.2701 0.00
			CHANNELS 3 Zrotation Xrotation Yrotation
			End Site
			{
				OFFSET 0.00 0.1379 0.00
			}
		}
		JOINT RightShoulder
		{
			OFFSET 0.0119 0.2289 0.1181
			CHANNELS 3 Zrotation Xrotation Yrotation
			JOINT RightElbow
			{
				OFFSET 0.00 -0.1475 0.00
				CHANNELS 2 Zrotation Yrotation
				JOINT RightWrist
				{
					OFFSET 0.00 -0.1605 0.00
					CHANNELS 2 Zrotation Xrotation
					End Site
					{
						OFFSET 0.0040 -0.1068 0.0006
					}
				}
			}
		}
		JOINT LeftShoulder
		{
			OFFSET 0.0119 0.2289 -0.1181
			CHANNELS 3 Zrotation Xrotation Yrotation
			JOINT LeftElbow
			{
				OFFSET 0.00 -0.1475 0.00
				CHANNELS 2 Zrotation Yrotation
				JOINT LeftWrist
				{
					OFFSET 0.00 -0.1605 0.00
					CHANNELS 2 Zrotation Xrotation
					End Site
					{
						OFFSET 0.0040 -0.1068 -0.0006
					}
				}
			}
		}
	}
	JOINT RightHip
	{
		OFFSET 0.0316 -0.0424 0.0458
		CHANNELS 3 Zrotation Xrotation Yrotation
		JOINT RightKnee
		{
			OFFSET 0.00 -0.2438 0.00
			CHANNELS 1 Zrotation
			JOINT RightAnkle
			{
				OFFSET 0.00 -0.2449 0.00
				CHANNELS 3 Zrotation Xrotation Yrotation
				End Site
				{
					OFFSET 0.1237 -0.0542 0.0051
				}
			}
		}
	}
	JOINT LeftHip
	{
		OFFSET 0.0316 -0.0424 -0.0458
		CHANNELS 3 Zrotation Xrotation Yrotation
		JOINT LeftKnee
		{
			OFFSET 0.00 -0.2438 0.00
			CHANNELS 1 Zrotation
			JOINT LeftAnkle
			{
				OFFSET 0.00 -0.2449 0.00
				CHANNELS 3 Zrotation Xrotation Yrotation
				End Site
				{
					OFFSET 0.1237 -0.0542 -0.0051
				}
			}
		}
	}
}
MOTION
Frames: 13
Frame Time: 0.02
0.01434 -0.00838 -0.22158 -172.18137 -23.84305 1.6054 34.43789 1.48229 -12.13188 -8.67568 -7.53614 -2.11993 21.76575 -24.28846 32.18154 112.03414 119.75207 22.34259 3.81188 146.00568 6.08296 -55.60683 11.09709 -76.69115 3.09408 6.06323 24.41902 5.17043 -15.59254 -18.00378 -6.47345 -2.66452 -3.51742 42.66229 17.36465 7.65208 -28.96767 -10.40046 1.92162 3.36412
0.01436 -0.00836 -0.22238 -172.96549 -23.90206 1.77036 34.42385 1.58642 -11.79104 -8.87332 -6.98738 -2.11993 20.24793 -24.20327 31.11052 112.22232 119.81552 22.60469 3.77577 147.18193 9.10545 -55.60876 10.40001 -77.18049 1.7167 5.33815 24.40068 5.05408 -15.48079 -17.8799 -6.47602 -2.60524 -3.48872 42.79511 17.25581 7.70806 -28.99159 -10.30919 1.89757 3.34704
0.01427 -0.00828 -0.22284 -173.63142 -23.97335 1.97873 34.42985 1.72908 -11.49791 -9.04278 -6.3493 -2.11993 18.5955 -24.16052 29.97362 112.42481 120.03913 23.05663 3.74527 147.62743 12.98223 -55.60156 10.24534 -77.36063 1.16544 4.33366 24.39643 4.86758 -15.3712 -17.76547 -6.48558 -2.55539 -3.46527 42.88344 16.97028 7.67041 -28.75892 -10.19221 1.87714 3.32974
0.01421 -0.00824 -0.22343 -174.33172 -24.03526 2.16386 34.42628 1.85312 -11.1977 -9.22747 -5.74913 -2.11993 17.00149 -24.10784 28.87121 112.62655 120.17496 23.41762 3.71002 148.33621 16.48459 -55.59686 9.8715 -77.83238 0.27717 3.44258 24.38184 4.71539 -15.26509 -17.65061 -6.4915 -2.50272 -3.44015 42.98707 16.76262 7.68308 -28.62883 -10.08771 1.85702 3.31355
0.01422 -0.00817 -0.22409 -175.12272 -24.11748 2.36516 34.42656 1.98277 -10.83011 -9.39865 -5.14886 -2.11993 15.4138 -24.01856 27.74651 112.80332 120.34446 23.78281 3.68036 149.34245 19.96181 -55.59156 9.38596 -77.72678 -0.80323 2.59686 24.38768 4.55015 -15.14056 -17.51933 -6.4994 -2.4434 -3.41178 43.11487 16.5656 7.67217 -28.55899 -9.97816 1.82832 3.29283
0.01406 -0.00814 -0.22453 -175.69171 -24.15878 2.54208 34.42306 2.10955 -10.61638 -9.59257 -4.53282 -2.11993 13.7844 -24.01591 26.65528 113.03557 120.49182 24.18987 3.64157 149.53903 23.67358 -55.5875 9.26275 -78.7168 -1.2681 1.60212 24.35312 4.39688 -15.05456 -17.42487 -6.50483 -2.40052 -3.3916 43.18067 16.30453 7.68319 -28.30375 -9.87398 1.8181 3.28143
0.01344 -0.00824 -0.2245 -175.69487 -24.08264 2.64735 34.40131 2.21844 -10.81617 -9.85528 -3.88598 -2.11993 12.05677 -24.22413 25.65454 113.41948 120.55712 24.67197 3.57935 147.84699 27.91925 -55.59467 9.98856 -82.93005 -0.33145 0.17414 24.20021 4.28882 -15.07743 -17.42557 -6.5016 -2.39871 -3.39183 43.08367 15.90669 7.79504 -27.58188 -9.78726 1.86266 3.29786
0.01265 -0.00838 -0.22425 -175.47389 -23.96452 2.72544 34.37507 2.32291 -11.1698 -10.14203 -3.2304 -2.11993 10.29619 -24.5205 24.69367 113.85827 120.59601 25.19104 3.50781 145.33406 32.34812 -55.60095 11.06899 -88.22344 1.21538 -1.37733 24.0062 4.19629 -15.13882 -17.46371 -6.49565 -2.41352 -3.4003 42.92586 15.45091 7.92792 -26.68537 -9.70775 1.92497 3.32338
0.01193 -0.00851 -0.22409 -175.34288 -23.86594 2.81159 34.35276 2.42983 -11.45373 -10.41945 -2.58526 -2.11993 8.5606 -24.78802 23.72617 114.27108 120.63901 25.69142 3.43896 143.08928 36.62991 -55.60854 11.99071 -92.93953 2.55102 -2.81205 23.83262 4.1005 -15.18008 -17.48744 -6.49101 -2.42213 -3.40563 42.79687 15.02369 8.03865 -25.87967 -9.6275 1.97619 3.34345
0.01122 -0.00862 -0.22398 -175.25941 -23.76595 2.91685 34.32412 2.53693 -11.73875 -10.691 -1.90608 -2.11993 6.77439 -25.01095 22.70645 114.68972 120.71887 26.20537 3.37647 141.26634 41.22013 -55.62261 12.89606 -98.02451 3.64297 -4.51054 23.65221 3.98697 -15.23087 -17.50059 -6.48628 -2.42546 -3.40864 42.66099 14.58119 8.19923 -25.01596 -9.53548 2.04017 3.36902
0.01045 -0.00877 -0.22371 -175.02358 -23.65869 2.97594 34.3062 2.64125 -12.05688 -10.97847 -1.30124 -2.11993 5.09206 -25.34563 21.80756 115.10786 120.71557 26.69834 3.29883 138.37361 45.18925 -55.60962 13.94405 -102.58404 5.36794 -5.68785 23.4761 3.914 -15.27299 -17.54443 -6.48102 -2.4435 -3.41833 42.52611 14.1587 8.26239 -24.23594 -9.47021 2.08189 3.38538
0.00954 -0.00902 -0.22305 -174.43605 -23.54241 2.90799 34.32857 2.74594 -12.43326 -11.3248 -0.86804 -2.11993 3.66796 -25.97896 21.21897 115.52123 120.47561 27.11587 3.17912 132.7956 47.48221 -55.64357 15.01976 -105.57656 8.76178 -5.37183 23.32187 3.95858 -15.26435 -17.66463 -6.47492 -2.49908 -3.44488 42.40495 13.80961 8.05052 -23.72268 -9.47568 2.05635 3.3733
0.00857 -0.00931 -0.22223 -173.70098 -23.42033 2.79532 34.36002 2.84645 -12.83638 -11.68262 -0.5173 -2.11993 2.35772 -26.71877 20.75394 115.9302 120.15612 27.51145 3.04528 126.17162 49.12068 -55.63167 16.27054 -107.97647 12.75241 -4.5301 23.1736 4.04218 -15.24903 -17.81417 -6.46838 -2.56866 -3.47777 42.2882 13.483 7.7411 -23.3025 -9.50814 2.00797 3.35173
